# Blender 3.5.0
# www.blender.org
mtllib wood_wall.mtl
o Cube
v -0.897358 0.002535 0.897358
v -0.897358 2.002535 0.897358
v -0.897358 0.002535 -0.897358
v -0.897358 2.002535 -0.897358
v 0.897358 0.002535 0.897358
v 0.897358 2.002535 0.897358
v 0.897358 0.002535 -0.897358
v 0.897358 2.002535 -0.897358
v -0.897358 0.002535 -0.299119
v -0.897358 0.002535 0.299119
v -0.897358 2.002535 0.299119
v -0.897358 2.002535 -0.299119
v 0.897358 0.002535 0.299119
v 0.897358 0.002535 -0.299119
v 0.897358 2.002535 -0.299119
v 0.897358 2.002535 0.299119
v 0.299119 0.002535 -0.897358
v -0.299119 0.002535 -0.897358
v -0.299119 2.002535 -0.897358
v 0.299119 2.002535 -0.897358
v -0.299119 0.002535 0.897358
v 0.299119 0.002535 0.897358
v 0.299119 2.002535 0.897358
v -0.299119 2.002535 0.897358
v -0.528176 2.138743 -0.528176
v -0.528176 2.138743 0.000000
v -0.528176 2.138743 0.264088
v -0.528176 2.138743 -0.264088
v 0.000000 2.138743 0.528176
v 0.000000 2.138743 -0.528176
v 0.000000 2.138743 0.000000
v 0.000000 2.138743 0.264088
v -0.299119 0.002535 -0.598239
v 0.299119 0.002535 -0.598239
v 0.299119 2.002535 -0.598239
v -0.299119 2.002535 -0.598239
v 0.000000 2.138743 -0.264088
v 0.528176 2.138743 0.528176
v 0.528176 2.138743 -0.528176
v 0.528176 2.138743 0.000000
v 0.299119 2.002535 0.598239
v -0.299119 2.002535 0.598239
v -0.299119 0.002535 0.598239
v 0.299119 0.002535 0.598239
v 0.528176 2.138743 0.264088
v 0.528176 2.138743 -0.264088
v 0.598239 2.002535 -0.299119
v 0.598239 2.002535 0.299119
v -0.264088 2.138743 0.528176
v 0.264088 2.138743 0.528176
v 0.598239 0.002535 -0.299119
v 0.598239 0.002535 0.299119
v 0.598239 2.002535 0.000000
v 0.598239 0.002535 0.000000
v 0.598239 2.002535 -0.598239
v 0.598239 0.002535 -0.598239
v 0.598239 2.002535 0.598239
v 0.598239 0.002535 0.598239
v -0.264088 2.138743 -0.528176
v 0.264088 2.138743 -0.528176
v -0.264088 2.138743 0.000000
v 0.264088 2.138743 0.000000
v 0.000000 2.002535 -0.598239
v 0.000000 0.002535 -0.598239
v 0.000000 0.002535 0.598239
v 0.000000 2.002535 0.598239
v 0.264088 2.138743 0.264088
v -0.264088 2.138743 0.264088
v -0.598239 0.002535 -0.299119
v -0.598239 0.002535 0.299119
v 0.264088 2.138743 -0.264088
v -0.264088 2.138743 -0.264088
v -0.598239 2.002535 -0.299119
v -0.598239 2.002535 0.299119
v -0.598239 0.002535 0.000000
v -0.598239 2.002535 0.000000
v -0.598239 0.002535 -0.598239
v -0.598239 2.002535 -0.598239
v -0.598239 0.002535 0.598239
v -0.598239 2.002535 0.598239
v -0.985755 0.002535 0.142384
v -0.985755 0.002535 -0.142384
v -0.879922 0.002535 -0.000000
v -0.985755 2.002535 -0.142384
v -0.985755 2.002535 0.142384
v -0.879922 2.002535 -0.000000
v 0.985755 0.002535 -0.142384
v 0.985755 0.002535 0.142384
v 0.879922 0.002535 -0.000000
v 0.985755 2.002535 0.142384
v 0.985755 2.002535 -0.142384
v 0.879922 2.002535 -0.000000
v -0.976210 2.002535 -0.824899
v -0.992456 2.002535 -0.541513
v -0.881660 2.002535 -0.663076
v 0.976210 0.002535 -0.824899
v 0.992456 0.002535 -0.541513
v 0.881660 0.002535 -0.663076
v -0.992456 0.002535 -0.541513
v -0.976210 0.002535 -0.824899
v -0.881660 0.002535 -0.663076
v 0.992456 2.002535 -0.541513
v 0.976210 2.002535 -0.824899
v 0.881660 2.002535 -0.663076
v -0.976210 0.002535 0.824899
v -0.992456 0.002535 0.541513
v -0.881660 0.002535 0.663076
v 0.976210 2.002535 0.824899
v 0.992456 2.002535 0.541513
v 0.881660 2.002535 0.663076
v -0.992456 2.002535 0.541513
v -0.976210 2.002535 0.824899
v -0.881660 2.002535 0.663076
v 0.992456 0.002535 0.541513
v 0.976210 0.002535 0.824899
v 0.881660 0.002535 0.663076
v 0.824899 2.002535 -0.976210
v 0.541513 2.002535 -0.992456
v 0.663076 2.002535 -0.881660
v 0.824899 0.002535 0.976210
v 0.541513 0.002535 0.992456
v 0.663076 0.002535 0.881660
v 0.541513 0.002535 -0.992456
v 0.824899 0.002535 -0.976210
v 0.663076 0.002535 -0.881660
v 0.541513 2.002535 0.992456
v 0.824899 2.002535 0.976210
v 0.663076 2.002535 0.881660
v -0.142384 0.002535 -0.985755
v 0.142384 0.002535 -0.985755
v 0.000000 0.002535 -0.879922
v 0.142384 2.002535 -0.985755
v -0.142384 2.002535 -0.985755
v 0.000000 2.002535 -0.879922
v 0.142384 0.002535 0.985755
v -0.142384 0.002535 0.985755
v 0.000000 0.002535 0.879922
v -0.142384 2.002535 0.985755
v 0.142384 2.002535 0.985755
v 0.000000 2.002535 0.879922
v -0.824899 0.002535 -0.976210
v -0.541513 0.002535 -0.992456
v -0.663076 0.002535 -0.881660
v -0.824899 2.002535 0.976210
v -0.541513 2.002535 0.992456
v -0.663076 2.002535 0.881660
v -0.541513 2.002535 -0.992456
v -0.824899 2.002535 -0.976210
v -0.663076 2.002535 -0.881660
v -0.541513 0.002535 0.992456
v -0.824899 0.002535 0.976210
v -0.663076 0.002535 0.881660
v -0.528176 2.138743 0.528176
v 0.239738 0.186477 -0.239738
v -0.239738 0.186477 -0.239738
v 0.239738 0.186477 0.239738
v -0.239738 0.186477 0.239738
v -0.239738 0.186477 0.000000
v 0.239738 0.186477 0.000000
v -0.239738 0.186477 -0.479475
v 0.239738 0.186477 -0.479475
v -0.239738 0.186477 0.479475
v 0.239738 0.186477 0.479475
v 0.479475 0.186477 -0.239738
v 0.479475 0.186477 0.239738
v 0.479475 0.186477 0.000000
v 0.479475 0.186477 -0.479475
v 0.479475 0.186477 0.479475
v 0.000000 0.186477 -0.239738
v 0.000000 0.186477 0.239738
v 0.000000 0.186477 0.000000
v 0.000000 0.186477 -0.479475
v 0.000000 0.186477 0.479475
v -0.479475 0.186477 -0.239738
v -0.479475 0.186477 0.239738
v -0.479475 0.186477 0.000000
v -0.479475 0.186477 -0.479475
v -0.479475 0.186477 0.479475
vn -0.0000 1.0000 -0.0000
vn 0.7363 -0.0000 -0.6766
vn -0.0000 -1.0000 -0.0000
vn -0.9309 -0.0000 0.3652
vn 0.9309 -0.0000 0.3652
vn 0.8710 -0.0000 0.4912
vn -0.6766 -0.0000 0.7363
vn -0.8710 -0.0000 0.4912
vn -0.0000 -0.5424 -0.8401
vn -0.8401 -0.5424 -0.0000
vn -0.0000 -0.5424 0.8401
vn -0.0000 0.4574 0.8893
vn 0.8893 0.4574 -0.0000
vn -0.0000 0.4574 -0.8893
vn -0.4912 -0.0000 -0.8710
vn -0.7363 -0.0000 0.6766
vn -0.8893 0.4574 -0.0000
vn 0.8401 -0.5424 -0.0000
vn 0.8710 -0.0000 -0.4912
vn 0.4912 -0.0000 0.8710
vn -0.3652 -0.0000 -0.9309
vn 0.3652 -0.0000 -0.9309
vn 0.6766 -0.0000 -0.7363
vn -0.6766 -0.0000 -0.7363
vn 0.6766 -0.0000 0.7363
vn 0.9309 -0.0000 -0.3652
vn -0.3652 -0.0000 0.9309
vn 0.7363 -0.0000 0.6766
vn 0.4912 -0.0000 -0.8710
vn -0.4912 -0.0000 0.8710
vn -0.7363 -0.0000 -0.6766
vn -0.9309 -0.0000 -0.3652
vn -0.8710 -0.0000 -0.4912
vn 0.3652 -0.0000 0.9309
vn -1.0000 -0.0000 -0.0000
vn 1.0000 -0.0000 -0.0000
vn 0.9984 -0.0000 -0.0572
vn -0.9984 -0.0000 -0.0572
vn -0.9984 -0.0000 0.0572
vn 0.9984 -0.0000 0.0572
vn 0.0572 -0.0000 0.9984
vn 0.0572 -0.0000 -0.9984
vn -0.0000 -0.0000 -1.0000
vn -0.0000 -0.0000 1.0000
vn -0.0572 -0.0000 -0.9984
vn -0.0572 -0.0000 0.9984
vt 0.375000 0.000000
vt 0.375000 1.000000
vt 0.125000 0.750000
vt 0.625000 0.000000
vt 0.625000 1.000000
vt 0.875000 0.750000
vt 0.375000 0.250000
vt 0.125000 0.500000
vt 0.875000 0.500000
vt 0.625000 0.250000
vt 0.375000 0.750000
vt 0.625000 0.750000
vt 0.375000 0.500000
vt 0.625000 0.500000
vt 0.125000 0.583333
vt 0.375000 0.166667
vt 0.375000 0.083333
vt 0.125000 0.666667
vt 0.875000 0.666667
vt 0.625000 0.083333
vt 0.875000 0.583333
vt 0.625000 0.166667
vt 0.375000 0.666667
vt 0.375000 0.583333
vt 0.625000 0.583333
vt 0.625000 0.666667
vt 0.375000 0.416667
vt 0.291667 0.500000
vt 0.375000 0.333333
vt 0.208333 0.500000
vt 0.625000 0.333333
vt 0.791667 0.500000
vt 0.708333 0.500000
vt 0.625000 0.416667
vt 0.208333 0.750000
vt 0.375000 0.916667
vt 0.291667 0.750000
vt 0.375000 0.833333
vt 0.708333 0.750000
vt 0.625000 0.833333
vt 0.791667 0.750000
vt 0.625000 0.916667
vt 0.833333 0.541667
vt 0.833333 0.625000
vt 0.833333 0.666667
vt 0.833333 0.583333
vt 0.750000 0.708333
vt 0.750000 0.541667
vt 0.750000 0.625000
vt 0.750000 0.666667
vt 0.208333 0.541667
vt 0.291667 0.541667
vt 0.708333 0.541667
vt 0.791667 0.541667
vt 0.750000 0.583333
vt 0.666667 0.708333
vt 0.666667 0.541667
vt 0.666667 0.625000
vt 0.708333 0.708333
vt 0.791667 0.708333
vt 0.208333 0.708333
vt 0.291667 0.708333
vt 0.666667 0.666667
vt 0.666667 0.583333
vt 0.666667 0.583333
vt 0.666667 0.666667
vt 0.791667 0.708333
vt 0.708333 0.708333
vt 0.333333 0.583333
vt 0.333333 0.666667
vt 0.666667 0.625000
vt 0.333333 0.625000
vt 0.666667 0.541667
vt 0.333333 0.541667
vt 0.666667 0.708333
vt 0.333333 0.708333
vt 0.791667 0.541667
vt 0.708333 0.541667
vt 0.791667 0.625000
vt 0.708333 0.625000
vt 0.750000 0.541667
vt 0.250000 0.541667
vt 0.250000 0.708333
vt 0.750000 0.708333
vt 0.708333 0.666667
vt 0.791667 0.666667
vt 0.166667 0.583333
vt 0.166667 0.666667
vt 0.708333 0.583333
vt 0.791667 0.583333
vt 0.833333 0.583333
vt 0.833333 0.666667
vt 0.166667 0.625000
vt 0.833333 0.625000
vt 0.166667 0.541667
vt 0.833333 0.541667
vt 0.166667 0.708333
vt 0.833333 0.708333
vt 0.375000 0.105961
vt 0.125000 0.644039
vt 0.125000 0.605961
vt 0.129405 0.625000
vt 0.375000 0.144039
vt 0.140282 0.625000
vt 0.875000 0.605961
vt 0.870595 0.625000
vt 0.625000 0.144039
vt 0.875000 0.644039
vt 0.625000 0.105961
vt 0.859717 0.625000
vt 0.375000 0.605961
vt 0.375000 0.640875
vt 0.375000 0.644039
vt 0.359717 0.625000
vt 0.625000 0.644039
vt 0.625000 0.609125
vt 0.625000 0.605961
vt 0.640283 0.625000
vt 0.875000 0.518388
vt 0.871894 0.541667
vt 0.625000 0.231612
vt 0.875000 0.557729
vt 0.625000 0.192271
vt 0.859896 0.541667
vt 0.375000 0.518388
vt 0.375000 0.560803
vt 0.375000 0.557729
vt 0.359896 0.541667
vt 0.125000 0.557729
vt 0.375000 0.192271
vt 0.125000 0.518388
vt 0.128106 0.541667
vt 0.375000 0.231612
vt 0.140104 0.541667
vt 0.625000 0.557729
vt 0.625000 0.528463
vt 0.625000 0.518388
vt 0.640104 0.541667
vt 0.125000 0.731612
vt 0.375000 0.018388
vt 0.125000 0.692271
vt 0.130864 0.708333
vt 0.375000 0.057729
vt 0.140104 0.708333
vt 0.625000 0.731612
vt 0.625000 0.689197
vt 0.625000 0.692271
vt 0.640104 0.708333
vt 0.875000 0.692271
vt 0.869136 0.708333
vt 0.625000 0.057729
vt 0.875000 0.731612
vt 0.625000 0.018388
vt 0.859896 0.708333
vt 0.375000 0.692271
vt 0.375000 0.721537
vt 0.375000 0.731612
vt 0.359896 0.708333
vt 0.643388 0.500000
vt 0.666667 0.503106
vt 0.625000 0.481612
vt 0.682729 0.500000
vt 0.625000 0.442271
vt 0.666667 0.515104
vt 0.356612 0.750000
vt 0.333333 0.746894
vt 0.375000 0.768388
vt 0.317271 0.750000
vt 0.375000 0.807729
vt 0.333333 0.734896
vt 0.317271 0.500000
vt 0.375000 0.442271
vt 0.356612 0.500000
vt 0.333333 0.503106
vt 0.375000 0.481612
vt 0.333333 0.515104
vt 0.682729 0.750000
vt 0.625000 0.807729
vt 0.643388 0.750000
vt 0.666667 0.746894
vt 0.625000 0.768388
vt 0.666667 0.734896
vt 0.230961 0.500000
vt 0.375000 0.355961
vt 0.269039 0.500000
vt 0.250000 0.504405
vt 0.375000 0.394039
vt 0.250000 0.515282
vt 0.730961 0.500000
vt 0.750000 0.504405
vt 0.625000 0.394039
vt 0.769039 0.500000
vt 0.625000 0.355961
vt 0.750000 0.515283
vt 0.269039 0.750000
vt 0.250000 0.745595
vt 0.375000 0.855961
vt 0.230961 0.750000
vt 0.375000 0.894039
vt 0.250000 0.734717
vt 0.769039 0.750000
vt 0.625000 0.894039
vt 0.730961 0.750000
vt 0.750000 0.745595
vt 0.625000 0.855961
vt 0.750000 0.734717
vt 0.143388 0.500000
vt 0.375000 0.268388
vt 0.182729 0.500000
vt 0.166667 0.505864
vt 0.375000 0.307729
vt 0.166667 0.515104
vt 0.856612 0.750000
vt 0.625000 0.981612
vt 0.817271 0.750000
vt 0.833333 0.744136
vt 0.625000 0.942271
vt 0.833333 0.734896
vt 0.817271 0.500000
vt 0.833333 0.505864
vt 0.625000 0.307729
vt 0.856612 0.500000
vt 0.625000 0.268388
vt 0.833333 0.515104
vt 0.182729 0.750000
vt 0.166667 0.744136
vt 0.375000 0.942271
vt 0.143388 0.750000
vt 0.375000 0.981612
vt 0.166667 0.734896
vt 0.833333 0.708333
vt 0.291667 0.583333
vt 0.208333 0.583333
vt 0.291667 0.666667
vt 0.208333 0.666667
vt 0.208333 0.625000
vt 0.291667 0.625000
vt 0.208333 0.541667
vt 0.291667 0.541667
vt 0.208333 0.708333
vt 0.291667 0.708333
vt 0.333333 0.583333
vt 0.333333 0.666667
vt 0.333333 0.625000
vt 0.333333 0.541667
vt 0.333333 0.708333
vt 0.250000 0.583333
vt 0.250000 0.666667
vt 0.250000 0.625000
vt 0.250000 0.541667
vt 0.250000 0.708333
vt 0.166667 0.583333
vt 0.166667 0.666667
vt 0.166667 0.625000
vt 0.166667 0.541667
vt 0.166667 0.708333
s 0
f 78/96/1 95/124/1 94/122/1 12/21/1 73/91/1
f 119/164/1 118/162/1 20/33/1 35/53/1 55/73/1
f 16/26/1 48/66/1 57/75/1 110/148/1 109/147/1
f 42/60/1 80/98/1 146/218/1 145/215/1 24/41/1
f 124/175/2 117/161/2 8/14/2 7/13/2
f 52/70/3 13/23/3 114/155/3 116/158/3 58/76/3
f 9/16/4 12/22/4 94/123/4 99/130/4
f 51/69/3 14/24/3 87/111/3 89/114/3 54/72/3
f 97/127/5 102/135/5 15/25/5 14/24/5
f 88/113/6 90/115/6 16/26/6 13/23/6
f 99/129/3 101/134/3 77/95/3 69/87/3 9/15/3
f 90/115/1 92/118/1 53/71/1 48/66/1 16/26/1
f 1/1/7 2/4/7 112/153/7 105/140/7
f 10/17/8 11/20/8 85/109/8 81/99/8
f 44/62/9 65/83/9 173/251/9 163/241/9
f 58/76/9 44/62/9 163/241/9 168/246/9
f 56/74/10 51/69/10 164/242/10 167/245/10
f 64/82/11 34/52/11 161/239/11 172/250/11
f 80/98/12 42/60/12 49/67/12 153/231/12
f 53/71/13 47/65/13 46/64/13 40/58/13
f 36/54/14 78/96/14 25/43/14 59/77/14
f 42/60/12 66/84/12 29/47/12 49/67/12
f 18/29/15 19/31/15 133/193/15 129/184/15
f 41/59/1 66/84/1 140/206/1 139/203/1 23/39/1
f 40/58/1 62/80/1 67/85/1 45/63/1
f 66/84/1 42/60/1 24/41/1 138/201/1 140/206/1
f 17/28/3 123/171/3 125/176/3 56/74/3 34/52/3
f 65/83/3 44/62/3 22/37/3 135/195/3 137/200/3
f 151/229/16 144/214/16 2/5/16 1/2/16
f 20/33/1 132/189/1 134/194/1 63/81/1 35/53/1
f 74/92/17 80/98/17 153/231/17 27/45/17
f 55/73/14 35/53/14 60/78/14 39/57/14
f 70/88/18 75/93/18 176/254/18 175/253/18
f 54/72/10 52/70/10 165/243/10 166/244/10
f 9/15/3 69/87/3 75/93/3 83/104/3 82/101/3
f 54/72/3 89/114/3 88/113/3 13/23/3 52/70/3
f 14/24/19 15/25/19 91/117/19 87/111/19
f 76/94/1 86/110/1 85/108/1 11/19/1 74/92/1
f 22/38/20 23/40/20 139/205/20 135/197/20
f 17/27/21 20/34/21 118/163/21 123/172/21
f 18/30/3 129/183/3 131/188/3 64/82/3 33/51/3
f 142/211/22 147/221/22 19/31/22 18/29/22
f 56/74/3 98/128/3 97/127/3 14/24/3 51/69/3
f 7/13/23 8/14/23 103/137/23 96/125/23
f 100/133/24 93/121/24 4/10/24 3/7/24
f 125/176/3 124/173/3 7/13/3 96/125/3 98/128/3 56/74/3
f 79/97/18 70/88/18 175/253/18 178/256/18
f 34/52/11 56/74/11 167/245/11 161/239/11
f 66/84/12 41/59/12 50/68/12 29/47/12
f 63/81/14 36/54/14 59/77/14 30/48/14
f 10/18/3 70/88/3 79/97/3 107/144/3 106/141/3
f 80/98/1 113/154/1 112/152/1 2/6/1 144/213/1 146/218/1
f 58/76/3 116/158/3 115/157/3 5/11/3 120/165/3 122/170/3
f 115/157/25 108/145/25 6/12/25 5/11/25
f 69/87/18 77/95/18 177/255/18 174/252/18
f 74/92/1 11/19/1 111/149/1 113/154/1 80/98/1
f 57/75/1 41/59/1 23/39/1 126/177/1 128/182/1
f 105/139/3 107/144/3 79/97/3 152/230/3 151/228/3 1/3/3
f 33/51/11 64/82/11 172/250/11 160/238/11
f 149/224/1 148/222/1 4/9/1 93/119/1 95/124/1 78/96/1
f 44/62/3 58/76/3 122/170/3 121/168/3 22/37/3
f 13/23/26 16/26/26 109/147/26 114/155/26
f 8/14/1 117/159/1 119/164/1 55/73/1 104/138/1 103/137/1
f 15/25/1 47/65/1 53/71/1 92/118/1 91/117/1
f 65/83/9 43/61/9 162/240/9 173/251/9
f 43/61/9 79/97/9 178/256/9 162/240/9
f 121/169/27 126/178/27 23/40/27 22/38/27
f 5/11/28 6/12/28 127/181/28 120/167/28
f 48/66/13 53/71/13 40/58/13 45/63/13
f 52/70/10 58/76/10 168/246/10 165/243/10
f 130/187/29 132/191/29 20/34/29 17/27/29
f 134/194/1 133/192/1 19/32/1 36/54/1 63/81/1
f 77/95/11 33/51/11 160/238/11 177/255/11
f 57/75/13 48/66/13 45/63/13 38/56/13
f 131/188/3 130/185/3 17/28/3 34/52/3 64/82/3
f 43/61/3 65/83/3 137/200/3 136/198/3 21/35/3
f 136/199/30 138/202/30 24/42/30 21/36/30
f 3/7/31 4/10/31 148/223/31 141/208/31
f 73/91/17 76/94/17 26/44/17 28/46/17
f 47/65/13 55/73/13 39/57/13 46/64/13
f 75/93/18 69/87/18 174/252/18 176/254/18
f 51/69/10 54/72/10 166/244/10 164/242/10
f 78/96/17 73/91/17 28/46/17 25/43/17
f 108/145/1 110/148/1 57/75/1 128/182/1 127/179/1 6/12/1
f 79/97/3 43/61/3 21/35/3 150/225/3 152/230/3
f 102/135/1 104/138/1 55/73/1 47/65/1 15/25/1
f 76/94/17 74/92/17 27/45/17 26/44/17
f 73/91/1 12/21/1 84/105/1 86/110/1 76/94/1
f 143/212/3 142/209/3 18/30/3 33/51/3 77/95/3
f 106/143/32 111/151/32 11/20/32 10/17/32
f 3/8/3 141/207/3 143/212/3 77/95/3 101/134/3 100/131/3
f 82/103/33 84/107/33 12/22/33 9/16/33
f 35/53/14 63/81/14 30/48/14 60/78/14
f 41/59/12 57/75/12 38/56/12 50/68/12
f 21/36/34 24/42/34 145/217/34 150/227/34
f 19/32/1 147/219/1 149/224/1 78/96/1 36/54/1
f 81/100/3 82/102/3 83/104/3
f 84/106/1 85/108/1 86/110/1
f 87/111/3 88/112/3 89/114/3
f 90/115/1 91/116/1 92/118/1
f 93/120/1 94/122/1 95/124/1
f 96/125/3 97/126/3 98/128/3
f 99/129/3 100/132/3 101/134/3
f 102/135/1 103/136/1 104/138/1
f 105/139/3 106/142/3 107/144/3
f 108/145/1 109/146/1 110/148/1
f 111/150/1 112/152/1 113/154/1
f 114/155/3 115/156/3 116/158/3
f 117/160/1 118/162/1 119/164/1
f 120/166/3 121/168/3 122/170/3
f 123/171/3 124/174/3 125/176/3
f 126/177/1 127/180/1 128/182/1
f 129/183/3 130/186/3 131/188/3
f 132/190/1 133/192/1 134/194/1
f 135/196/3 136/198/3 137/200/3
f 138/201/1 139/204/1 140/206/1
f 141/207/3 142/210/3 143/212/3
f 144/213/1 145/216/1 146/218/1
f 147/220/1 148/222/1 149/224/1
f 150/226/3 151/228/3 152/230/3
f 84/107/35 82/103/35 81/99/35 85/109/35
f 90/115/36 88/113/36 87/111/36 91/117/36
f 102/135/37 97/127/37 96/125/37 103/137/37
f 93/121/38 100/133/38 99/130/38 94/123/38
f 111/151/39 106/143/39 105/140/39 112/153/39
f 108/145/40 115/157/40 114/155/40 109/147/40
f 126/178/41 121/169/41 120/167/41 127/181/41
f 117/161/42 124/175/42 123/172/42 118/163/42
f 132/191/43 130/187/43 129/184/43 133/193/43
f 138/202/44 136/199/44 135/197/44 139/205/44
f 147/221/45 142/211/45 141/208/45 148/223/45
f 144/214/46 151/229/46 150/227/46 145/217/46
f 81/100/3 83/104/3 75/93/3 70/88/3 10/18/3
f 31/49/1 61/79/1 68/86/1 32/50/1
f 39/57/1 60/78/1 71/89/1 46/64/1
f 30/48/1 59/77/1 72/90/1 37/55/1
f 37/55/1 72/90/1 61/79/1 31/49/1
f 46/64/1 71/89/1 62/80/1 40/58/1
f 32/50/1 68/86/1 49/67/1 29/47/1
f 45/63/1 67/85/1 50/68/1 38/56/1
f 67/85/1 32/50/1 29/47/1 50/68/1
f 71/89/1 37/55/1 31/49/1 62/80/1
f 60/78/1 30/48/1 37/55/1 71/89/1
f 62/80/1 31/49/1 32/50/1 67/85/1
f 68/86/1 27/45/1 153/231/1 49/67/1
f 72/90/1 28/46/1 26/44/1 61/79/1
f 61/79/1 26/44/1 27/45/1 68/86/1
f 59/77/1 25/43/1 28/46/1 72/90/1
f 176/254/3 158/236/3 157/235/3 175/253/3
f 171/249/3 159/237/3 156/234/3 170/248/3
f 177/255/3 160/238/3 155/233/3 174/252/3
f 172/250/3 161/239/3 154/232/3 169/247/3
f 169/247/3 154/232/3 159/237/3 171/249/3
f 174/252/3 155/233/3 158/236/3 176/254/3
f 170/248/3 156/234/3 163/241/3 173/251/3
f 175/253/3 157/235/3 162/240/3 178/256/3
f 156/234/3 165/243/3 168/246/3 163/241/3
f 154/232/3 164/242/3 166/244/3 159/237/3
f 159/237/3 166/244/3 165/243/3 156/234/3
f 161/239/3 167/245/3 164/242/3 154/232/3
f 157/235/3 170/248/3 173/251/3 162/240/3
f 155/233/3 169/247/3 171/249/3 158/236/3
f 160/238/3 172/250/3 169/247/3 155/233/3
f 158/236/3 171/249/3 170/248/3 157/235/3
